<svg width="310" height="184" viewBox="0 0 310 184" fill="none" xmlns="http://www.w3.org/2000/svg">
<path d="M172.491 0C179.912 0 186.401 5.00473 188.286 12.1826L213.096 106.656C213.273 107.33 213.865 107.826 214.562 107.826H230.946C230.998 107.826 231.044 107.791 231.059 107.74L250.134 44.7949C251.526 40.2047 255.757 37.0654 260.553 37.0654C265.501 37.0656 269.826 40.4016 271.083 45.1865L285.465 99.9482C286.684 104.59 290.88 107.826 295.679 107.826H297.332C301.985 107.826 306.089 104.781 307.439 100.328L316.95 68.9404C317.835 66.0195 320.528 64.0217 323.58 64.0215C326.728 64.0215 329.481 66.1453 330.281 69.1904L340.807 109.27C341.139 110.532 341.139 111.859 340.807 113.121L330.281 153.201C329.481 156.246 326.728 158.369 323.58 158.369C320.528 158.369 317.835 156.371 316.95 153.45L308.801 126.557C307.452 122.104 303.347 119.059 298.694 119.059H294.498C289.699 119.059 285.503 122.295 284.284 126.937L271.083 177.205C269.826 181.99 265.501 185.326 260.553 185.326C255.757 185.326 251.526 182.187 250.134 177.597L234.667 126.556C233.318 122.104 229.213 119.059 224.561 119.059H220.369C215.569 119.059 211.373 122.295 210.154 126.937L188.286 210.209C186.401 217.387 179.912 222.391 172.491 222.391C165.296 222.391 158.95 217.682 156.863 210.797L131.336 126.557C129.987 122.104 125.882 119.059 121.229 119.059H117.037C112.238 119.059 108.042 122.295 106.823 126.937L93.6217 177.205C92.3649 181.99 88.0396 185.326 83.0924 185.326C78.2961 185.326 74.0646 182.187 72.6735 177.597L57.2064 126.556C55.857 122.104 51.7524 119.059 47.0997 119.059H42.9085C38.1092 119.059 33.9134 122.295 32.6943 126.937L25.7965 153.201C24.9968 156.246 22.2438 158.369 19.0954 158.369C16.0432 158.369 13.3506 156.371 12.4655 153.45L0.327774 113.395C-0.106665 111.961 -0.106642 110.431 0.327774 108.997L12.4655 68.9404C13.3507 66.0195 16.0433 64.0217 19.0954 64.0215C22.2438 64.0215 24.9968 66.1453 25.7965 69.1904L33.8749 99.9483C35.0941 104.59 39.2898 107.826 44.0891 107.826H53.4845C53.5375 107.826 53.5829 107.791 53.5983 107.74L72.6735 44.7949C74.0646 40.2047 78.296 37.0654 83.0924 37.0654C88.0397 37.0656 92.3649 40.4016 93.6217 45.1865L108.004 99.9482C109.223 104.59 113.419 107.826 118.218 107.826H125.937C127.021 107.826 127.937 107.051 128.252 106.013L156.863 11.5947C158.949 4.70923 165.296 5.82544e-05 172.491 0Z" fill="url(#paint0_linear_182_326)"/>
<linearGradient id="paint0_linear_182_326" x1="0" y1="0" x2="317.492" y2="199.114" gradientUnits="userSpaceOnUse">
<stop stop-color="#2E64E7"/>
<stop offset="1" stop-color="#2E64E7" stop-opacity="0"/>
</linearGradient>
</svg>
