<svg width="310" height="170" viewBox="0 0 310 170" fill="none" xmlns="http://www.w3.org/2000/svg">
<path fill-rule="evenodd" clip-rule="evenodd" d="M234.96 0.638621C255.433 -1.55941 276.109 1.94206 294.708 10.748L295.593 11.1718C314.125 20.1462 329.812 34.0636 340.928 51.3808L341.453 52.208C352.424 69.6328 358.364 89.7448 358.626 110.321L358.634 111.302C358.717 132.219 352.927 152.74 341.924 170.529L341.404 171.361C330.426 188.766 314.851 202.807 296.391 211.929L295.51 212.359C276.982 221.313 256.334 224.98 235.844 222.944L234.869 222.843C214.478 220.637 195.083 212.86 178.811 200.358C160.056 214.851 136.536 223.476 111 223.476C49.6964 223.476 3.99549e-05 173.779 0 112.476C0 51.1719 49.6964 1.47554 111 1.47554C136.105 1.47554 159.261 9.81213 177.856 23.8652C151.847 44.3253 135.144 76.0852 135.144 111.745C135.144 147.836 152.255 179.928 178.805 200.358C178.806 200.359 178.809 200.36 178.811 200.358C178.721 200.289 178.704 200.161 178.773 200.071L182.666 195.022C184.884 192.144 184.335 188.03 181.614 185.624C161.481 167.822 148.678 141.919 148.312 113.019L148.304 111.745C148.304 84.044 159.729 59.0122 178.125 41.1032C182.302 37.0367 183.149 30.4397 179.553 25.8518L178.379 24.3548C178.261 24.2041 178.125 24.0677 177.973 23.9521C178.006 23.9776 178.049 23.9341 178.023 23.9009L177.975 23.839C177.959 23.8189 177.963 23.7899 177.983 23.7743C194.18 11.0869 213.561 3.12126 233.986 0.74702L234.96 0.638621ZM289.076 22.6425C272.668 14.8737 254.427 11.7845 236.365 13.7236L235.506 13.8193C222.457 15.3361 209.892 19.4406 198.526 25.84C192.844 29.039 192.39 36.7222 196.548 41.745C212.445 60.9502 222 85.5966 222 112.476C222 138.925 212.748 163.213 197.304 182.282C193.201 187.349 193.737 195.027 199.453 198.165C210.805 204.397 223.316 208.356 236.284 209.759L237.145 209.849C255.221 211.644 273.437 208.409 289.783 200.51L290.561 200.131C306.847 192.084 320.588 179.695 330.273 164.34L330.731 163.606C340.439 147.912 345.547 129.807 345.474 111.353L345.467 110.489C345.236 92.336 339.995 74.5925 330.316 59.2197C320.484 43.603 306.466 31.0597 289.856 23.0166L289.076 22.6425Z" fill="url(#paint0_linear_182_326)"/>
<path d="M177.973 23.9521C177.934 23.9229 177.895 23.8943 177.856 23.8652C177.858 23.8652 177.859 23.8656 177.86 23.8664C177.898 23.8948 177.935 23.9236 177.973 23.9521Z" fill="url(#paint1_linear_182_326)"/>
<defs>
<linearGradient id="paint0_linear_182_326" x1="0" y1="0" x2="317.492" y2="199.114" gradientUnits="userSpaceOnUse">
<stop stop-color="#2E64E7"/>
<stop offset="1" stop-color="#2E64E7" stop-opacity="0"/>
</linearGradient>
<linearGradient id="paint1_linear_182_326" x1="0" y1="0" x2="317.492" y2="199.114" gradientUnits="userSpaceOnUse">
<stop stop-color="#2E64E7"/>
<stop offset="1" stop-color="#2E64E7" stop-opacity="0"/>
</linearGradient>
</defs>
</svg>
