<svg width="290" height="150" viewBox="0 0 290 150" fill="none" xmlns="http://www.w3.org/2000/svg">
<path d="M14.4287 0C16.875 5.86793e-05 19.2811 0.622061 21.4209 1.80762L102.631 46.8027C104.098 47.6154 105.406 48.6862 106.492 49.9639L106.78 50.3037C111.314 55.6382 110.994 63.5602 106.044 68.5107C105.251 69.3036 104.362 69.9943 103.397 70.5664L44.0693 105.761C38.9002 108.827 35.7306 114.392 35.7305 120.402C35.7305 127.587 40.2416 133.999 47.0039 136.427L49.54 137.337C55.2743 139.395 61.6222 138.844 66.915 135.826L117.077 107.229C119.812 105.669 122.907 104.85 126.055 104.85C133.124 104.85 139.549 108.96 142.512 115.379L142.885 116.188C144.068 118.751 144.681 121.542 144.681 124.365V197.398C144.681 200.113 144.231 202.809 143.351 205.377L141.547 210.639C139.217 217.435 132.825 222 125.641 222C122.762 222 119.932 221.261 117.421 219.854L9.58105 159.422C3.66435 156.106 0.000120896 149.853 0 143.07V14.4287C0 6.46015 6.46015 0 14.4287 0ZM163.719 0C166.597 3.52529e-05 169.427 0.739365 171.938 2.14648L279.778 62.5781C285.695 65.8938 289.359 72.1473 289.359 78.9297V207.571C289.359 215.54 282.899 222 274.931 222C272.484 222 270.078 221.378 267.938 220.192L186.729 175.197C185.262 174.385 183.953 173.314 182.867 172.036L182.579 171.696C178.045 166.362 178.365 158.44 183.315 153.489C184.108 152.696 184.998 152.006 185.962 151.434L245.29 116.239C250.459 113.173 253.629 107.608 253.629 101.598C253.629 94.4128 249.118 88.0007 242.355 85.5732L239.819 84.6631C234.085 82.6047 227.737 83.1564 222.444 86.1738L172.282 114.771C169.547 116.331 166.453 117.15 163.305 117.15C156.235 117.15 149.81 113.04 146.848 106.621L146.475 105.812C145.291 103.249 144.679 100.458 144.679 97.6348V24.6016C144.679 21.8869 145.128 19.191 146.009 16.623L147.812 11.3613C150.143 4.56508 156.534 0 163.719 0Z" fill="url(#paint0_linear_182_332)"/>
<defs>
<linearGradient id="paint0_linear_182_332" x1="0" y1="0" x2="283.381" y2="144.355" gradientUnits="userSpaceOnUse">
<stop stop-color="#2E64E7"/>
<stop offset="1" stop-color="#2E64E7" stop-opacity="0"/>
</linearGradient>
</defs>
</svg>
