<svg width="310" height="150" viewBox="0 0 310 150" fill="none" xmlns="http://www.w3.org/2000/svg">
<path d="M88.1582 0C102.228 0 115.164 7.71953 121.845 20.1025L135.145 44.7559C136.396 47.0749 138.752 48.5873 141.381 48.7598L176.069 51.0342H285.793C322.434 51.0342 352.137 80.7379 352.138 117.379V155.655C352.138 192.296 322.434 222 285.793 222H279.854C257.31 222 236.309 210.552 224.094 191.605L216.953 180.531C214.134 176.159 209.288 173.518 204.086 173.518H66.3447C29.7037 173.518 0.00023035 143.814 0 107.173V66.9824C0.000206151 29.9891 29.9891 0.000182831 66.9824 0H88.1582ZM66.3457 51.0352C57.8901 51.0352 51.0353 57.8892 51.0352 66.3447V109.967C51.0352 118.422 57.89 125.277 66.3457 125.277H169.702C173.052 125.277 176.359 126.041 179.37 127.51C183.077 129.318 186.203 132.13 188.392 135.626L209.944 170.047C211.297 172.206 213.665 173.518 216.213 173.518H283.242C291.698 173.517 298.553 166.663 298.553 158.207V115.677C298.553 107.221 291.698 100.367 283.242 100.367H179.897C145.988 100.367 156.583 57.512 137.639 51.3027C137.038 51.106 136.392 51.0352 135.761 51.0352H66.3457Z" fill="url(#paint0_linear_182_340)"/>
<defs>
<linearGradient id="paint0_linear_182_340" x1="0" y1="0" x2="313.769" y2="194.512" gradientUnits="userSpaceOnUse">
<stop stop-color="#2E64E7"/>
<stop offset="1" stop-color="#2E64E7" stop-opacity="0"/>
</linearGradient>
</defs>
</svg>
