<svg width="12" height="12" viewBox="0 0 12 12" fill="none" xmlns="http://www.w3.org/2000/svg">
<path d="M2.14615 6.49822C2.14615 6.61822 2.19282 6.73155 2.28615 6.81822C2.46615 6.97822 2.73949 6.96489 2.89949 6.79155L5.56759 4.24064L5.56759 10.8997C5.56759 11.139 5.7616 11.333 6.00092 11.333C6.24024 11.333 6.43425 11.139 6.43425 10.8997V4.28286L8.86614 6.84489C9.02614 7.02489 9.29948 7.03156 9.47948 6.87156C9.65281 6.71156 9.66614 6.43823 9.50614 6.25823L6.34759 2.91301C6.16092 2.70634 5.84092 2.70634 5.65425 2.91301L2.25949 6.20489C2.17949 6.29155 2.14615 6.39155 2.14615 6.49822Z" fill="#E8E8E8"/>
<path d="M0.900391 0.999674C0.900391 1.239 1.0944 1.43301 1.33372 1.43301H10.6671C10.9064 1.43301 11.1004 1.239 11.1004 0.999674C11.1004 0.760351 10.9064 0.566341 10.6671 0.566341H1.33372C1.0944 0.566341 0.900391 0.760351 0.900391 0.999674Z" fill="#E8E8E8"/>
</svg>
