<svg width="12" height="12" viewBox="0 0 12 12" fill="none" xmlns="http://www.w3.org/2000/svg">
<path d="M1.53268 1.12327C1.53268 0.883951 1.33867 0.689941 1.09935 0.689941C0.860026 0.689941 0.666016 0.883951 0.666016 1.12327V10.0026C0.666016 10.7205 1.24805 11.3026 1.96602 11.3026H10.8909C11.1302 11.3026 11.3242 11.1085 11.3242 10.8692C11.3242 10.6299 11.1302 10.4359 10.8909 10.4359H1.96602C1.72669 10.4359 1.53268 10.2419 1.53268 10.0026V1.12327Z" fill="black"/>
<path d="M10.7717 3.19581C10.8933 3.18271 11.0148 3.22164 11.1062 3.30299C11.1976 3.38434 11.2503 3.50053 11.2514 3.62288L11.2686 5.59996C11.2707 5.83927 11.0784 6.03497 10.839 6.03705C10.5997 6.03914 10.404 5.84682 10.402 5.60751L10.3947 4.77256L7.69226 7.47498C7.611 7.55624 7.50078 7.6019 7.38585 7.6019C7.27092 7.6019 7.1607 7.55624 7.07944 7.47498L5.17294 5.56848L3.26644 7.47498C3.09721 7.64421 2.82284 7.64421 2.65361 7.47498C2.48439 7.30575 2.48439 7.03138 2.65361 6.86215L4.86653 4.64924C4.94779 4.56797 5.05801 4.52232 5.17294 4.52232C5.28787 4.52232 5.39809 4.56797 5.47935 4.64924L7.38585 6.55574L9.76577 4.17582L8.85042 4.2744C8.61247 4.30003 8.3988 4.12791 8.37318 3.88996C8.34755 3.65202 8.51967 3.43835 8.75762 3.41272L10.7717 3.19581Z" fill="black"/>
</svg>
