<svg width="16" height="16" viewBox="0 0 16 16" fill="none" xmlns="http://www.w3.org/2000/svg">
<path fill-rule="evenodd" clip-rule="evenodd" d="M7.99969 2C6.22299 2 4.84211 3.54668 5.04272 5.31202L5.21741 6.84932C5.37821 8.26438 6.57552 9.33333 7.99969 9.33333C9.42385 9.33333 10.6212 8.26438 10.782 6.84932L10.9567 5.31202C11.1573 3.54668 9.77638 2 7.99969 2ZM9.92084 6.75147L10.0955 5.21416C10.2377 3.96293 9.25898 2.86667 7.99969 2.86667C6.7404 2.86667 5.76166 3.96292 5.90384 5.21416L6.07854 6.75147C6.18957 7.72856 7.01631 8.46667 7.99969 8.46667C8.98307 8.46667 9.8098 7.72856 9.92084 6.75147Z" fill="black"/>
<path fill-rule="evenodd" clip-rule="evenodd" d="M6.76393 10C4.88913 10 3.26588 11.3021 2.85918 13.1323L2.79255 13.4321C2.72779 13.7235 2.94956 14 3.24811 14H12.7513C13.0498 14 13.2716 13.7235 13.2068 13.4321L13.1402 13.1323C12.7335 11.3021 11.1102 10 9.23545 10H6.76393ZM11.8925 13.1333C12.0699 13.1333 12.1977 12.963 12.1298 12.7992C11.652 11.6458 10.519 10.8667 9.23545 10.8667H8.96985C8.7964 10.8667 8.66912 11.0296 8.71113 11.1979L9.14387 12.9313C9.17352 13.05 9.2802 13.1333 9.4026 13.1333H11.8925ZM6.59383 13.1333C6.71651 13.1333 6.82336 13.0496 6.85273 12.9305L7.28024 11.1972C7.32171 11.0291 7.19447 10.8667 7.02134 10.8667H6.76393C5.48042 10.8667 4.34742 11.6458 3.86955 12.7992C3.80168 12.963 3.92951 13.1333 4.10684 13.1333H6.59383Z" fill="black"/>
</svg>
