<svg width="16" height="16" viewBox="0 0 16 16" fill="none" xmlns="http://www.w3.org/2000/svg">
<path d="M7.53804 6.05369C7.78884 5.9943 8.00067 6.20885 8.00067 6.46659V7.13325C8.00067 7.6119 8.38869 7.99992 8.86734 7.99992H9.534C9.79174 7.99992 10.0063 8.21175 9.9469 8.46255C9.73814 9.34406 8.946 9.99992 8.00067 9.99992C6.8961 9.99992 6.00067 9.10449 6.00067 7.99992C6.00067 7.05459 6.65653 6.26245 7.53804 6.05369Z" fill="black"/>
<path fill-rule="evenodd" clip-rule="evenodd" d="M8.00068 3.33325C4.74686 3.33325 2.57815 5.76968 1.62524 7.12161C1.24992 7.65408 1.24992 8.34575 1.62524 8.87823C2.57815 10.2302 4.74686 12.6666 8.00068 12.6666C11.2545 12.6666 13.4232 10.2302 14.3761 8.87823C14.7514 8.34575 14.7514 7.65408 14.3761 7.12161C13.4232 5.76968 11.2545 3.33325 8.00068 3.33325ZM3.80648 5.95144C3.17522 6.51837 2.68138 7.12754 2.33362 7.62092C2.16935 7.85397 2.16935 8.14587 2.33362 8.37892C2.68138 8.8723 3.17522 9.48146 3.80647 10.0484C3.50387 9.42999 3.33401 8.73479 3.33401 7.99992C3.33401 7.26505 3.50387 6.56984 3.80648 5.95144ZM8.00068 11.7999C5.902 11.7999 4.20068 10.0986 4.20068 7.99992C4.20068 5.90124 5.902 4.19992 8.00068 4.19992C10.0994 4.19992 11.8007 5.90124 11.8007 7.99992C11.8007 10.0986 10.0994 11.7999 8.00068 11.7999ZM12.1949 5.95144C12.8261 6.51837 13.32 7.12754 13.6677 7.62092C13.832 7.85397 13.832 8.14587 13.6677 8.37892C13.32 8.8723 12.8261 9.48146 12.1949 10.0484C12.4975 9.42999 12.6673 8.73479 12.6673 7.99992C12.6673 7.26505 12.4975 6.56984 12.1949 5.95144Z" fill="black"/>
</svg>
