<svg width="12" height="12" viewBox="0 0 12 12" fill="none" xmlns="http://www.w3.org/2000/svg">
<path d="M6.03853 6.92109C5.85853 7.11442 5.55186 7.12109 5.36519 6.93442L4.12435 5.70591C3.95768 5.53925 3.95768 5.25925 4.12435 5.09258C4.29102 4.92591 4.57102 4.92591 4.73768 5.09258L5.68519 6.02775L7.4391 4.14114C7.5991 3.96114 7.8791 3.95447 8.05243 4.11447C8.22576 4.27447 8.2391 4.54781 8.0791 4.72781L6.03853 6.92109Z" fill="black"/>
<path fill-rule="evenodd" clip-rule="evenodd" d="M1.32248 1.16919C0.936673 1.26564 0.666016 1.61229 0.666016 2.00998V5.49691C0.666016 7.56565 1.73173 9.48847 3.48602 10.5849L5.54002 11.8686C5.82105 12.0443 6.17765 12.0443 6.45868 11.8686L8.51268 10.5849C10.267 9.48847 11.3327 7.56565 11.3327 5.49691V2.00998C11.3327 1.61229 11.062 1.26564 10.6762 1.16919L6.48442 0.121238C6.16594 0.0416185 5.83276 0.0416184 5.51428 0.121238L1.32248 1.16919ZM10.466 5.49691V2.00998L6.27422 0.962029C6.09375 0.916911 5.90495 0.916911 5.72448 0.962029L1.53268 2.00998V5.49691C1.53268 7.26683 2.44446 8.91191 3.94535 9.84997L5.99935 11.1337L8.05334 9.84997C9.55423 8.91191 10.466 7.26683 10.466 5.49691Z" fill="black"/>
</svg>
