<svg width="32" height="32" viewBox="0 0 32 32" fill="none" xmlns="http://www.w3.org/2000/svg">
<path fill-rule="evenodd" clip-rule="evenodd" d="M21.3331 16C21.3331 18.9455 18.9453 21.3334 15.9998 21.3334C13.0543 21.3334 10.6665 18.9455 10.6665 16C10.6665 13.0545 13.0543 10.6667 15.9998 10.6667C18.9453 10.6667 21.3331 13.0545 21.3331 16ZM19.5998 16C19.5998 17.9882 17.988 19.6 15.9998 19.6C14.0116 19.6 12.3998 17.9882 12.3998 16C12.3998 14.0118 14.0116 12.4 15.9998 12.4C17.988 12.4 19.5998 14.0118 19.5998 16Z" fill="white"/>
<path fill-rule="evenodd" clip-rule="evenodd" d="M14.6439 4.00659C13.4629 4.00659 12.4628 4.87746 12.3005 6.0472C12.0991 7.49787 10.5862 8.37137 9.22916 7.82041C8.13496 7.37615 6.88072 7.80682 6.29024 8.82956L5.0146 11.039C4.43128 12.0494 4.67152 13.3341 5.5805 14.0654C6.75597 15.011 6.73663 16.8347 5.52983 17.7743C4.59799 18.4997 4.34384 19.8013 4.93432 20.824L6.20996 23.0335C6.79328 24.0438 8.026 24.4781 9.11379 24.0566C10.5205 23.5114 12.0902 24.44 12.3005 25.9549C12.4628 27.1247 13.4629 27.9955 14.6439 27.9955H17.1952C18.3618 27.9955 19.3543 27.1451 19.5331 25.9923C19.7762 24.4246 21.4065 23.4833 22.8858 24.0566C23.9736 24.4782 25.2063 24.0438 25.7896 23.0335L27.0653 20.824C27.6558 19.8013 27.4016 18.4997 26.4698 17.7743C25.263 16.8347 25.2436 15.011 26.4191 14.0654C27.3281 13.3341 27.5683 12.0494 26.985 11.039L25.7093 8.82956C25.1189 7.80682 23.8646 7.37615 22.7704 7.82041C21.3534 8.39576 19.7643 7.50065 19.5331 6.00984C19.3543 4.857 18.3618 4.00659 17.1952 4.00659H14.6439ZM14.0173 6.2855C14.0607 5.97276 14.3281 5.73993 14.6439 5.73993L17.1952 5.73993C17.5071 5.73993 17.7724 5.96729 17.8202 6.27551C18.226 8.89184 20.9886 10.4146 23.4225 9.42642C23.715 9.30764 24.0504 9.42278 24.2082 9.69622L25.4839 11.9057C25.6398 12.1758 25.5756 12.5193 25.3326 12.7148C23.2697 14.3744 23.3322 17.5283 25.4049 19.142C25.6541 19.3359 25.722 19.6839 25.5642 19.9574L24.2885 22.1668C24.1326 22.437 23.803 22.5531 23.5122 22.4404C21.0008 21.4671 18.233 23.0651 17.8202 25.7266C17.7724 26.0348 17.5071 26.2622 17.1952 26.2622H14.6439C14.3281 26.2622 14.0607 26.0294 14.0173 25.7166C13.6562 23.1147 10.9561 21.4836 8.48744 22.4404C8.19661 22.5531 7.86703 22.437 7.71107 22.1668L6.43543 19.9574C6.27756 19.6839 6.34551 19.3359 6.59464 19.142C8.66738 17.5283 8.72991 14.3744 6.66701 12.7148C6.42398 12.5193 6.35975 12.1758 6.51571 11.9057L7.79135 9.69622C7.94922 9.42278 8.28456 9.30764 8.5771 9.42642C10.9808 10.4023 13.6607 8.85509 14.0173 6.2855Z" fill="white"/>
</svg>
