<svg width="32" height="32" viewBox="0 0 32 32" fill="none" xmlns="http://www.w3.org/2000/svg">
<path d="M5.36081 24.3147C4.88216 24.3147 4.49414 24.7028 4.49414 25.1814C4.49414 25.66 4.88216 26.0481 5.36081 26.0481H26.6478C27.1265 26.0481 27.5145 25.66 27.5145 25.1814C27.5145 24.7028 27.1265 24.3147 26.6478 24.3147H5.36081Z" fill="white"/>
<path fill-rule="evenodd" clip-rule="evenodd" d="M11.664 13.9034L14.7473 16.9905C15.1185 16.7988 15.5398 16.6905 15.9863 16.6905C16.313 16.6905 16.6261 16.7484 16.916 16.8546L20.7167 10.3678C20.3387 9.90276 20.1121 9.30965 20.1121 8.66361C20.1121 7.17043 21.3226 5.95996 22.8158 5.95996C24.309 5.95996 25.5194 7.17043 25.5194 8.66361C25.5194 10.1568 24.309 11.3673 22.8158 11.3673C22.5981 11.3673 22.3864 11.3415 22.1836 11.293L18.278 17.9589C18.539 18.3748 18.69 18.8669 18.69 19.3942C18.69 20.8874 17.4795 22.0978 15.9863 22.0978C14.4931 22.0978 13.2827 20.8874 13.2827 19.3942C13.2827 18.98 13.3758 18.5876 13.5422 18.2368L10.4588 15.1495C10.0877 15.3412 9.66652 15.4494 9.22006 15.4494C7.72687 15.4494 6.51641 14.2389 6.51641 12.7457C6.51641 11.2525 7.72687 10.0421 9.22006 10.0421C10.7132 10.0421 11.9237 11.2525 11.9237 12.7457C11.9237 13.16 11.8305 13.5525 11.664 13.9034ZM10.1904 12.7457C10.1904 13.2816 9.75595 13.716 9.22006 13.716C8.68417 13.716 8.24974 13.2816 8.24974 12.7457C8.24974 12.2098 8.68417 11.7754 9.22006 11.7754C9.75595 11.7754 10.1904 12.2098 10.1904 12.7457ZM15.9863 20.3645C16.5222 20.3645 16.9567 19.9301 16.9567 19.3942C16.9567 18.8583 16.5222 18.4238 15.9863 18.4238C15.4504 18.4238 15.016 18.8583 15.016 19.3942C15.016 19.9301 15.4504 20.3645 15.9863 20.3645ZM23.7861 8.66361C23.7861 9.19951 23.3517 9.63394 22.8158 9.63394C22.2799 9.63394 21.8454 9.19951 21.8454 8.66361C21.8454 8.12772 22.2799 7.69329 22.8158 7.69329C23.3517 7.69329 23.7861 8.12772 23.7861 8.66361Z" fill="white"/>
</svg>
