<svg width="32" height="32" viewBox="0 0 32 32" fill="none" xmlns="http://www.w3.org/2000/svg">
<path d="M14.3867 20.3867C14.76 20.76 15.3733 20.7467 15.7334 20.36L21.6267 13.96C21.9467 13.6 21.92 13.0533 21.5734 12.7333C21.2267 12.4133 20.6667 12.4267 20.3467 12.7867L15.0267 18.5733L11.8267 15.3733C11.4933 15.04 10.9333 15.04 10.6 15.3733C10.2667 15.7067 10.2667 16.2667 10.6 16.6L14.3867 20.3867Z" fill="white"/>
<path fill-rule="evenodd" clip-rule="evenodd" d="M16 4C9.37258 4 4 9.37258 4 16C4 22.6274 9.37258 28 16 28C22.6274 28 28 22.6274 28 16C28 9.37258 22.6274 4 16 4ZM5.73333 16C5.73333 10.3299 10.3299 5.73333 16 5.73333C21.6701 5.73333 26.2667 10.3299 26.2667 16C26.2667 21.6701 21.6701 26.2667 16 26.2667C10.3299 26.2667 5.73333 21.6701 5.73333 16Z" fill="white"/>
</svg>
