<svg width="32" height="32" viewBox="0 0 32 32" fill="none" xmlns="http://www.w3.org/2000/svg">
<path fill-rule="evenodd" clip-rule="evenodd" d="M10.2 12.8666C10.2 9.66333 12.7967 7.06659 16 7.06659C19.2032 7.06659 21.8 9.66333 21.8 12.8666V18.8702C21.8 20.8842 20.3812 22.5668 18.4885 22.9731C18.1031 21.9748 17.1342 21.2666 16 21.2666C14.5272 21.2666 13.3333 22.4605 13.3333 23.9333C13.3333 25.406 14.5272 26.5999 16 26.5999C17.1969 26.5999 18.2097 25.8113 18.547 24.7253C21.0486 24.3253 23.0279 22.3608 23.4499 19.8666H24.3999C25.8359 19.8666 26.9999 18.7026 26.9999 17.2666V14.7333C26.9999 13.2973 25.8359 12.1333 24.3999 12.1333L23.4981 12.1333C23.1294 8.31685 19.9131 5.33325 16 5.33325C12.0868 5.33325 8.87057 8.31682 8.50187 12.1332H7.6C6.16406 12.1332 5 13.2973 5 14.7332V17.2666C5 18.7025 6.16406 19.8666 7.6 19.8666H9.29666C9.30881 19.8671 9.32103 19.8673 9.3333 19.8673C9.81195 19.8673 10.2 19.4793 10.2 19.0006V12.8666ZM23.5333 13.8666V18.1333H24.3999C24.8786 18.1333 25.2666 17.7453 25.2666 17.2666V14.7333C25.2666 14.2546 24.8786 13.8666 24.3999 13.8666H23.5333ZM7.6 13.8666H8.46663V18.1332H7.6C7.12135 18.1332 6.73333 17.7452 6.73333 17.2666V14.7332C6.73333 14.2546 7.12135 13.8666 7.6 13.8666ZM16.9333 23.9333C16.9333 24.4487 16.5154 24.8666 16 24.8666C15.4845 24.8666 15.0666 24.4487 15.0666 23.9333C15.0666 23.4178 15.4845 22.9999 16 22.9999C16.5154 22.9999 16.9333 23.4178 16.9333 23.9333Z" fill="white"/>
</svg>
