<svg width="32" height="32" viewBox="0 0 32 32" fill="none" xmlns="http://www.w3.org/2000/svg">
<path d="M24 3.74731C24.4786 3.74731 24.8667 4.13533 24.8667 4.61398V7.13338H27.3861C27.8647 7.13338 28.2527 7.5214 28.2527 8.00005C28.2527 8.4787 27.8647 8.86672 27.3861 8.86672H24.8667V11.3859C24.8667 11.8646 24.4786 12.2526 24 12.2526C23.5214 12.2526 23.1333 11.8646 23.1333 11.3859V8.86672H20.6141C20.1355 8.86672 19.7475 8.4787 19.7475 8.00005C19.7475 7.5214 20.1355 7.13338 20.6141 7.13338H23.1333V4.61398C23.1333 4.13533 23.5214 3.74731 24 3.74731Z" fill="white"/>
<path fill-rule="evenodd" clip-rule="evenodd" d="M12 7.99989C12 9.91318 10.6567 11.5127 8.86173 11.9068C8.86499 11.9374 8.86667 11.9684 8.86667 11.9999L8.86667 20.094C10.3894 20.4304 11.5862 21.6345 11.9119 23.1612L20 23.1612C21.7305 23.1612 23.1333 21.7584 23.1333 20.0279L23.1333 14.8557C23.1333 14.377 23.5214 13.989 24 13.989C24.4786 13.989 24.8667 14.377 24.8667 14.8557V20.0279C24.8667 22.7157 22.6878 24.8946 20 24.8946L11.8996 24.8946C11.4932 26.673 9.90157 27.9999 8 27.9999C5.79086 27.9999 4 26.209 4 23.9999C4 22.0883 5.34086 20.49 7.13333 20.094L7.13333 11.9999C7.13333 11.9684 7.13501 11.9374 7.13827 11.9068C5.34332 11.5127 4 9.91318 4 7.99989C4 5.79075 5.79086 3.99989 8 3.99989C10.2091 3.99989 12 5.79075 12 7.99989ZM8 10.2666C9.25185 10.2666 10.2667 9.25173 10.2667 7.99989C10.2667 6.74804 9.25185 5.73322 8 5.73322C6.74815 5.73322 5.73333 6.74804 5.73333 7.99989C5.73333 9.25173 6.74815 10.2666 8 10.2666ZM10.2667 23.9999C10.2667 25.2517 9.25185 26.2666 8 26.2666C6.74815 26.2666 5.73333 25.2517 5.73333 23.9999C5.73333 22.748 6.74815 21.7332 8 21.7332C9.25185 21.7332 10.2667 22.748 10.2667 23.9999Z" fill="white"/>
</svg>
