<svg width="216" height="216" viewBox="0 0 216 216" fill="none" xmlns="http://www.w3.org/2000/svg">
<path d="M216 108C216 93.8172 213.207 79.7734 207.779 66.6702C202.351 53.567 194.396 41.6612 184.368 31.6325C174.339 21.6037 162.433 13.6485 149.33 8.22101C136.227 2.7935 122.183 -6.19948e-07 108 0C93.8172 6.19948e-07 79.7733 2.7935 66.6702 8.22101C53.567 13.6485 41.6612 21.6037 31.6325 31.6325C21.6037 41.6612 13.6485 53.567 8.22101 66.6702C2.7935 79.7734 -1.2399e-06 93.8172 0 108H10.8C10.8 95.2355 13.3142 82.596 18.1989 70.8032C23.0837 59.0103 30.2434 48.2951 39.2692 39.2692C48.2951 30.2434 59.0103 23.0837 70.8032 18.1989C82.596 13.3142 95.2355 10.8 108 10.8C120.764 10.8 133.404 13.3142 145.197 18.1989C156.99 23.0837 167.705 30.2434 176.731 39.2692C185.757 48.2951 192.916 59.0103 197.801 70.8032C202.686 82.596 205.2 95.2355 205.2 108H216Z" fill="#2C3039"/>
<path d="M0 108C0 122.183 2.7935 136.227 8.22101 149.33C13.6485 162.433 21.6037 174.339 31.6325 184.368C41.6612 194.396 53.567 202.351 66.6702 207.779C79.7734 213.206 93.8172 216 108 216C122.183 216 136.227 213.206 149.33 207.779C162.433 202.351 174.339 194.396 184.368 184.368C194.396 174.339 202.351 162.433 207.779 149.33C213.207 136.227 216 122.183 216 108H205.2C205.2 120.764 202.686 133.404 197.801 145.197C192.916 156.99 185.757 167.705 176.731 176.731C167.705 185.757 156.99 192.916 145.197 197.801C133.404 202.686 120.764 205.2 108 205.2C95.2355 205.2 82.596 202.686 70.8032 197.801C59.0103 192.916 48.2951 185.757 39.2692 176.731C30.2434 167.705 23.0837 156.99 18.1989 145.197C13.3142 133.404 10.8 120.764 10.8 108H0Z" fill="#2C3039"/>
</svg>
