<svg width="32" height="32" viewBox="0 0 32 32" fill="none" xmlns="http://www.w3.org/2000/svg">
<path d="M27.1164 5.33325C27.5951 5.33325 27.9831 5.72127 27.9831 6.19992C27.9831 6.67857 27.5951 7.06659 27.1164 7.06659H19.0903C18.6116 7.06659 18.2236 6.67857 18.2236 6.19992C18.2236 5.72127 18.6116 5.33325 19.0903 5.33325H27.1164Z" fill="white"/>
<path d="M27.9831 10.9115C27.9831 10.4329 27.5951 10.0448 27.1164 10.0448H23.614C23.1353 10.0448 22.7473 10.4329 22.7473 10.9115C22.7473 11.3902 23.1353 11.7782 23.614 11.7782H27.1164C27.5951 11.7782 27.9831 11.3902 27.9831 10.9115Z" fill="white"/>
<path fill-rule="evenodd" clip-rule="evenodd" d="M9.92116 5.96203C10.5981 5.28512 11.6956 5.28512 12.3725 5.96203L26.3356 19.9252C26.8657 20.4553 27.2362 21.1237 27.4047 21.8542L27.9374 24.1623C28.2254 25.4104 27.1068 26.529 25.8587 26.241L23.5505 25.7084C22.8201 25.5398 22.1517 25.1693 21.6216 24.6392L7.65842 10.6761C6.98151 9.99916 6.98151 8.90168 7.65842 8.22477L9.92116 5.96203ZM8.88407 9.45042L11.1468 7.18768L13.3083 9.34919L11.0456 11.6119L8.88407 9.45042ZM25.1099 21.1508L14.534 10.5748L12.2712 12.8376L22.8472 23.4136C23.1476 23.714 23.5264 23.9239 23.9403 24.0194L26.2484 24.5521L25.7158 22.2439C25.6203 21.83 25.4103 21.4512 25.1099 21.1508Z" fill="white"/>
<path d="M8.86928 26.5455C10.4439 26.5455 11.4049 25.7347 12.1417 25.1131L12.1847 25.0769C12.9407 24.4395 13.4741 24.0163 14.3911 24.0163C16.0869 24.0163 16.9224 25.0548 17.548 25.8324C17.6759 25.9913 17.7951 26.1394 17.911 26.2655C18.235 26.6178 18.7832 26.6408 19.1356 26.3168C19.4879 25.9928 19.5109 25.4445 19.1869 25.0922C19.1433 25.0449 19.0835 24.9666 19.0063 24.8656C18.4569 24.1473 17.0312 22.283 14.3911 22.283C12.8086 22.283 11.8448 23.0959 11.1057 23.7194L11.0675 23.7516C10.3097 24.3904 9.77987 24.8122 8.86928 24.8122C7.02379 24.8122 6.21922 23.7118 5.71293 23.0194C5.66336 22.9516 5.61664 22.8877 5.57209 22.8291C5.28229 22.4482 4.73854 22.3743 4.3576 22.6641C3.97666 22.9539 3.90278 23.4977 4.19258 23.8786C4.22579 23.9222 4.2646 23.9764 4.3095 24.039C4.81805 24.748 6.10724 26.5455 8.86928 26.5455Z" fill="white"/>
</svg>
